<svg width="500" height="188" viewBox="0 0 500 188" fill="none" xmlns="http://www.w3.org/2000/svg">
<g clip-path="url(#clip0)">
<path d="M121.816 117.025C114.84 116.851 108.367 122.735 108.367 129.278C108.367 135.56 113.92 141.791 120.688 141.947C127.872 142.138 134.934 138.667 134.934 129.555C134.917 123.064 129.052 117.216 121.816 117.025ZM121.816 117.025C114.84 116.851 108.367 122.735 108.367 129.278C108.367 135.56 113.92 141.791 120.688 141.947C127.872 142.138 134.934 138.667 134.934 129.555C134.917 123.064 129.052 117.216 121.816 117.025ZM25.4911 0C11.4007 0 0 11.4196 0 25.5292V162.044C0 176.119 11.4007 187.538 25.4911 187.538H161.501C175.592 187.538 187.027 176.119 187.027 162.044V35.8381C187.027 21.7458 198.445 10.3089 212.553 10.3089H310.613V0H25.4911ZM37.985 155.675C36.5968 155.675 35.6945 154.286 36.2497 153.019L40.9003 139.482V93.2139C40.6573 91.6519 39.8591 90.6106 38.1412 89.9685C36.4753 89.3437 35.9547 88.1809 36.0762 86.376C36.2497 83.9983 36.1109 81.6207 36.1109 79.1042C37.7768 79.0001 39.1476 78.9133 40.7788 78.8092V63.7103C39.9459 63.5368 37.8982 63.3979 36.7703 63.207C38.7312 53.0543 49.4725 19.1079 49.4725 19.1079H50.6178C50.6178 19.1079 63.0423 61.5583 63.424 63.1376C62.4696 63.2764 60.4394 63.45 59.2941 63.6409V78.7918C60.8385 78.8786 62.2267 78.9654 63.962 79.0695C63.962 81.9504 64.1528 84.8314 63.8578 87.6602C63.7537 88.5627 62.5217 89.5867 61.5673 90.0726C60.0229 90.8709 59.2941 91.8428 59.1032 93.318V139.465C59.1032 139.465 67.8663 139.43 75.085 139.396C78.3994 139.396 81.5402 138.007 83.7961 135.56C84.4555 134.831 85.1496 134.085 85.8437 133.356C87.9434 142.277 90.4768 148.559 97.8864 155.484C80.3602 155.536 48.0669 155.675 37.985 155.675ZM154.126 128.913C153.12 130.527 151.784 131.898 150.153 133.998C150.153 137.712 150.187 142.034 150.187 147.657C150.187 153.106 146.856 155.119 142.76 155.137L135.021 155.154V152.863C135.021 153.418 128.288 154.824 126.848 155.102C124.367 155.588 121.139 155.501 118.606 155.293C113.677 154.859 109.391 153.87 105.227 151.249C100.229 148.125 96.6718 143.63 94.468 137.487C92.9236 133.148 93.1492 128.202 94.1556 123.759C95.0927 119.576 97.1576 115.689 100.229 112.651C104.064 108.885 109.148 106.56 114.285 105.224C115.135 104.998 116.037 104.824 116.94 104.703C129.538 103.037 139.568 107.636 145.884 116.331C146.543 117.268 147.064 118.309 147.81 119.142C147.984 118.066 148.036 116.556 147.827 115.411C146.7 109.319 143.906 105.171 139.463 101.128C137.051 98.941 132.696 96.4419 129.867 94.7932C128.41 93.9254 126.865 93.1097 125.304 92.4155C124.488 92.0684 123.69 91.704 122.857 91.3916C122.475 91.218 120.792 90.3329 120.445 90.4891C106.042 97.1881 88.7763 108.295 85.7916 127.334C85.7916 127.334 84.7158 124.331 83.9349 121.676C79.2844 106.022 79.5794 97.5526 95.2141 88.4759C104.185 83.2694 112.914 77.8373 120.445 72.3531C127.785 76.6398 136.166 82.9223 145.641 88.3197C161.779 97.5005 163.48 113.918 154.126 128.913ZM121.816 117.025C114.84 116.851 108.367 122.735 108.367 129.278C108.367 135.56 113.92 141.791 120.688 141.947C127.872 142.138 134.934 138.667 134.934 129.555C134.917 123.064 129.052 117.216 121.816 117.025Z" fill="#FD0018"/>
<path d="M474.492 0H338.187V27.2127C338.187 41.305 349.605 52.7419 363.713 52.7419H464.133C478.223 52.7419 489.659 64.1615 489.659 78.2712V160.395C489.659 169.68 482.127 177.195 472.861 177.195H211.824C210.037 183.217 203.27 187.538 203.27 187.538H474.475C488.565 187.538 500.001 176.119 500.001 162.044V25.5292C500.001 11.4196 488.583 0 474.492 0ZM381.916 39.9513C381.916 40.2463 381.811 40.5066 381.621 40.6975C381.43 40.8711 381.187 40.9752 380.874 40.9752H362.411C362.064 40.9752 361.769 40.8711 361.544 40.6975C361.318 40.524 361.214 40.281 361.214 39.986V37.1918C361.214 36.6538 361.301 36.272 361.492 36.1158L372.892 25.7549C373.708 25.0433 374.332 24.3144 374.784 23.5855C375.217 22.8566 375.426 22.145 375.426 21.5029C375.426 20.7045 375.252 20.0277 374.888 19.3682C374.541 18.7434 374.02 18.2401 373.378 17.8583C372.753 17.5112 372.025 17.3203 371.226 17.3203C370.515 17.3203 369.855 17.4939 369.248 17.8063C368.623 18.1013 368.103 18.5525 367.669 19.16C367.235 19.7674 366.975 20.4789 366.853 21.3293C366.749 21.7632 366.472 22.0235 366.021 22.0235C365.882 22.0235 365.708 22.0062 365.5 21.9194L361.873 20.4616C361.491 20.3227 361.318 20.0624 361.318 19.698C361.318 19.5938 361.335 19.4897 361.387 19.3682C361.839 17.7021 362.567 16.279 363.574 15.1162C364.598 13.9708 365.778 13.0857 367.096 12.513C368.433 11.9229 369.786 11.6452 371.174 11.6452C373.152 11.6452 374.888 12.0617 376.432 12.8948C377.977 13.7278 379.139 14.8906 379.955 16.4179C380.805 17.893 381.222 19.6112 381.222 21.5549C381.222 23.0301 380.84 24.4532 380.076 25.8763C379.33 27.2474 378.306 28.4796 376.987 29.573L369.717 35.6472H380.788C381.135 35.6472 381.412 35.734 381.621 35.9423C381.829 36.1332 381.933 36.3935 381.933 36.7579V39.9513H381.916ZM392.362 39.8471C392.067 40.3851 391.65 40.8017 391.13 41.1141C390.609 41.4265 390.019 41.5653 389.412 41.5653C388.77 41.5653 388.197 41.4265 387.659 41.1141C387.139 40.8017 386.705 40.3851 386.41 39.8471C386.098 39.3091 385.959 38.7364 385.959 38.1116C385.959 37.4869 386.098 36.9315 386.41 36.3935C386.705 35.8555 387.139 35.4563 387.659 35.1439C388.197 34.8315 388.77 34.658 389.412 34.658C390.019 34.658 390.592 34.8315 391.13 35.1439C391.65 35.4563 392.067 35.8555 392.362 36.3935C392.674 36.9141 392.848 37.4695 392.848 38.1116C392.848 38.7364 392.674 39.3091 392.362 39.8471ZM392.362 28.2019C392.067 28.7226 391.65 29.1564 391.13 29.4515C390.609 29.7639 390.019 29.9374 389.412 29.9374C388.77 29.9374 388.197 29.7639 387.659 29.4515C387.139 29.1564 386.705 28.7226 386.41 28.2019C386.098 27.6639 385.959 27.0912 385.959 26.4664C385.959 25.8416 386.098 25.2863 386.41 24.7483C386.705 24.2103 387.139 23.7937 387.659 23.4814C388.197 23.1863 388.77 23.0301 389.412 23.0301C390.019 23.0301 390.592 23.2037 391.13 23.4814C391.65 23.7937 392.067 24.2103 392.362 24.7483C392.674 25.2689 392.848 25.8243 392.848 26.4664C392.848 27.1086 392.674 27.6639 392.362 28.2019ZM417.315 39.9513C417.315 40.2463 417.228 40.5066 417.02 40.6975C416.829 40.8711 416.604 40.9752 416.274 40.9752H397.828C397.481 40.9752 397.169 40.8711 396.926 40.6975C396.7 40.524 396.596 40.281 396.596 39.986V37.1918C396.596 36.6538 396.7 36.272 396.891 36.1158L408.274 25.7549C409.09 25.0433 409.715 24.3144 410.148 23.5855C410.634 22.8566 410.843 22.145 410.843 21.5029C410.843 20.7045 410.652 20.0277 410.305 19.3682C409.923 18.7434 409.437 18.2401 408.778 17.8583C408.153 17.5112 407.424 17.3203 406.643 17.3203C405.914 17.3203 405.272 17.4939 404.648 17.8063C404.04 18.1013 403.502 18.5525 403.086 19.16C402.652 19.7674 402.392 20.4789 402.253 21.3293C402.149 21.7632 401.906 22.0235 401.437 22.0235C401.299 22.0235 401.108 22.0062 400.917 21.9194L397.29 20.4616C396.891 20.3227 396.735 20.0624 396.735 19.698C396.735 19.5938 396.752 19.4897 396.804 19.3682C397.255 17.7021 397.984 16.279 399.008 15.1162C400.014 13.9708 401.177 13.0857 402.513 12.513C403.849 11.9229 405.186 11.6452 406.574 11.6452C408.552 11.6452 410.305 12.0617 411.849 12.8948C413.359 13.7278 414.539 14.8906 415.372 16.4179C416.222 17.893 416.621 19.6112 416.621 21.5549C416.621 23.0301 416.274 24.4532 415.493 25.8763C414.73 27.2474 413.706 28.4796 412.404 29.573L405.134 35.6472H416.205C416.552 35.6472 416.829 35.734 417.02 35.9423C417.228 36.1332 417.332 36.3935 417.332 36.7579V39.9513H417.315ZM442.633 13.5543C442.598 13.7278 442.494 13.9534 442.39 14.1964L428.629 40.281C428.525 40.4893 428.386 40.6628 428.178 40.8017C427.987 40.9232 427.761 40.9926 427.484 40.9926H423.059C422.816 40.9926 422.625 40.9232 422.469 40.819C422.33 40.7149 422.243 40.5413 422.243 40.3851C422.243 40.1942 422.313 40.0033 422.417 39.7951L434.321 17.3203H421.896C421.567 17.3203 421.306 17.2335 421.098 17.0773C420.907 16.8864 420.803 16.6261 420.803 16.3137V13.0683C420.803 12.7733 420.907 12.5477 421.098 12.3568C421.289 12.1659 421.532 12.0791 421.862 12.0791H441.644C441.956 12.0791 442.234 12.1485 442.407 12.27C442.581 12.4088 442.685 12.5997 442.685 12.8774C442.702 13.1378 442.667 13.3634 442.633 13.5543ZM465.92 36.4629C464.966 37.9902 463.682 39.1877 462.085 40.0901C460.471 40.9926 458.736 41.4265 456.845 41.4265C455.595 41.4265 454.294 41.2182 452.992 40.7843C451.656 40.3504 450.441 39.7257 449.366 38.9273C448.29 38.1637 447.474 37.296 446.901 36.3241C446.78 36.1332 446.728 35.9249 446.728 35.6819C446.728 35.491 446.745 35.3001 446.832 35.1439C446.936 34.953 447.04 34.7968 447.179 34.658L449.799 32.3845C449.938 32.2456 450.129 32.1936 450.337 32.1936C450.719 32.1936 451.066 32.3845 451.378 32.7142C451.986 33.6167 452.819 34.3456 453.843 34.9183C454.866 35.5084 455.838 35.7861 456.775 35.7861C457.643 35.7861 458.493 35.5952 459.187 35.196C459.899 34.8489 460.471 34.2935 460.87 33.634C461.287 32.9746 461.495 32.2109 461.495 31.43C461.495 30.5622 461.304 29.7639 460.905 29.087C460.558 28.3928 460.055 27.8548 459.413 27.473C458.753 27.0738 458.025 26.8829 457.174 26.8829C456.411 26.8829 455.665 27.0218 455.023 27.3168C454.38 27.6118 453.86 27.9589 453.461 28.3928C453.391 28.4102 453.287 28.4796 453.148 28.5837C452.958 28.6879 452.819 28.7746 452.645 28.8267C452.454 28.8614 452.263 28.9135 452.09 28.9135H448.776C448.429 28.9135 448.134 28.7746 447.908 28.497C447.665 28.2193 447.561 27.9069 447.578 27.5771L448.914 13.1204C448.914 12.808 449.036 12.565 449.261 12.3568C449.47 12.1485 449.713 12.0444 449.99 12.0444H464.185C464.532 12.0444 464.827 12.1485 465.087 12.3741C465.313 12.5997 465.434 12.8774 465.434 13.2072V15.9319C465.434 16.3137 465.313 16.5914 465.087 16.8344C464.879 17.0773 464.601 17.1815 464.289 17.1815H454.12L453.582 22.7004C454.12 22.2839 454.745 21.9715 455.456 21.7285C456.185 21.5029 456.914 21.3467 457.643 21.3467C459.534 21.3467 461.2 21.7806 462.675 22.683C464.15 23.5334 465.278 24.7483 466.094 26.2755C466.892 27.8028 467.274 29.4862 467.274 31.3779C467.308 33.2522 466.874 34.953 465.92 36.4629Z" fill="url(#paint0_linear)"/>
<path d="M262.598 120.479C267.908 118.032 272.194 114.387 275.421 109.528C278.632 104.669 280.263 99.3927 280.263 93.7003C280.263 85.3004 277.295 78.1328 271.361 72.1627C265.443 66.2273 258.225 63.2422 249.757 63.2422H213.107V155.154H231.189V123.239H244.932L263.378 155.137H282.9L262.598 120.479ZM258.554 103.35C256.09 106.022 253.175 107.324 249.757 107.324H231.189V80.1633H249.757C253.175 80.1633 256.09 81.4823 258.554 84.1029C261.001 86.7235 262.198 89.9169 262.198 93.7003C262.198 97.4837 260.984 100.694 258.554 103.35Z" fill="url(#paint1_linear)"/>
<path d="M309.606 98.4727H292.393V155.397H309.606V98.4727Z" fill="url(#paint2_linear)"/>
<path d="M307.575 76.5359C305.753 74.6442 303.55 73.707 300.947 73.707C298.431 73.707 296.227 74.6442 294.388 76.5359C292.548 78.4276 291.611 80.649 291.611 83.1655C291.611 85.7166 292.548 87.886 294.388 89.7256C296.244 91.5826 298.431 92.5024 300.947 92.5024C303.55 92.5024 305.771 91.5826 307.575 89.7256C309.432 87.8686 310.352 85.6993 310.352 83.1655C310.352 80.649 309.432 78.4449 307.575 76.5359Z" fill="url(#paint3_linear)"/>
<path d="M387.484 116.122C387.467 116.088 387.467 116.035 387.45 116.018C382.903 103.262 371.277 94.3417 356.458 94.3417C345.092 94.3417 338.932 97.3094 338.932 97.3094V74.5742C338.932 74.5742 327.583 74.5742 321.736 74.5742C321.736 91.1136 321.632 109.041 321.753 124.887C321.684 125.442 321.684 126.032 321.684 126.622C321.684 127.525 321.718 128.41 321.805 129.312C322.742 140.367 329.544 148.75 339.21 153.089C344.034 155.241 349.569 156.403 355.486 156.403C374.14 156.403 389.254 144.741 389.254 126.622V126.275C389.324 122.752 388.682 119.298 387.484 116.122ZM372.353 125.338C372.353 125.581 372.353 125.824 372.336 126.067C371.989 135.091 364.562 142.294 355.486 142.294C347.036 142.294 340.06 136.115 338.793 128.028C338.672 127.16 338.585 126.258 338.585 125.338C338.585 124.782 338.62 124.192 338.672 123.654V123.585C339.591 115.064 346.758 108.451 355.504 108.451C364.579 108.451 372.006 115.671 372.353 124.696C372.353 124.8 372.37 124.939 372.37 125.077V125.338H372.353Z" fill="url(#paint4_linear)"/>
<path d="M463.87 124.123C463.87 123.186 463.835 122.283 463.766 121.433C462.812 110.36 456.009 101.978 446.344 97.639C441.52 95.487 435.967 94.3242 430.084 94.3242C411.413 94.3242 396.299 105.987 396.299 124.123V124.453C396.212 127.958 396.854 131.377 398.069 134.588C398.069 134.605 398.086 134.675 398.103 134.709C402.667 147.431 414.276 156.368 429.095 156.368C440.444 156.368 446.656 153.383 446.656 153.383V155.379C446.656 155.379 458.005 155.379 463.835 155.379C463.835 138.805 463.922 141.651 463.818 125.841C463.853 125.268 463.87 124.678 463.87 124.123ZM446.864 127.056V127.143C445.945 135.647 438.796 141.842 430.084 141.842C420.974 141.842 413.582 135.074 413.2 126.015C413.2 125.893 413.183 125.772 413.183 125.667V125.338C413.183 125.129 413.183 124.904 413.2 124.678C413.582 115.636 420.974 108.625 430.084 108.625C438.501 108.625 445.494 114.612 446.743 122.717C446.882 123.585 446.969 124.453 446.969 125.338C446.969 125.928 446.917 126.518 446.864 127.056Z" fill="url(#paint5_linear)"/>
</g>
<defs>
<linearGradient id="paint0_linear" x1="500.001" y1="93.7816" x2="186.805" y2="93.7828" gradientUnits="userSpaceOnUse">
<stop stop-color="#2D05F9"/>
<stop offset="1" stop-color="#6E23D9"/>
</linearGradient>
<linearGradient id="paint1_linear" x1="248.004" y1="63.2422" x2="248.004" y2="155.154" gradientUnits="userSpaceOnUse">
<stop stop-color="#2D05F9"/>
<stop offset="1" stop-color="#6E23D9"/>
</linearGradient>
<linearGradient id="paint2_linear" x1="301" y1="98.4727" x2="301" y2="155.397" gradientUnits="userSpaceOnUse">
<stop stop-color="#2D05F9"/>
<stop offset="1" stop-color="#6E23D9"/>
</linearGradient>
<linearGradient id="paint3_linear" x1="300.982" y1="73.707" x2="300.982" y2="92.5024" gradientUnits="userSpaceOnUse">
<stop stop-color="#2D05F9"/>
<stop offset="1" stop-color="#6E23D9"/>
</linearGradient>
<linearGradient id="paint4_linear" x1="355.472" y1="74.5742" x2="355.472" y2="156.403" gradientUnits="userSpaceOnUse">
<stop stop-color="#2D05F9"/>
<stop offset="1" stop-color="#6E23D9"/>
</linearGradient>
<linearGradient id="paint5_linear" x1="430.081" y1="94.3242" x2="430.081" y2="156.368" gradientUnits="userSpaceOnUse">
<stop stop-color="#2D05F9"/>
<stop offset="1" stop-color="#6E23D9"/>
</linearGradient>
<clipPath id="clip0">
<rect width="500" height="187.521" fill="white"/>
</clipPath>
</defs>
</svg>
